<?xml version="1.0" standalone="no"?>
<!DOCTYPE svg PUBLIC "-//W3C//DTD SVG 20010904//EN"
 "http://www.w3.org/TR/2001/REC-SVG-20010904/DTD/svg10.dtd">
<svg version="1.0" xmlns="http://www.w3.org/2000/svg"
 width="658.000000pt" height="658.000000pt" viewBox="0 0 658.000000 658.000000"
 preserveAspectRatio="xMidYMid meet">
<metadata>
Created by potrace 1.14, written by Peter Selinger 2001-2017
</metadata>
<g transform="translate(0.000000,658.000000) scale(0.100000,-0.100000)"
fill="#000000" stroke="none">
<path d="M2605 6504 c-38 -14 -88 -24 -110 -23 -22 1 -47 -1 -55 -4 -71 -24
-130 -37 -169 -37 -30 0 -62 -9 -93 -25 -45 -24 -108 -39 -156 -36 -15 0 -46
-22 -95 -68 -39 -37 -87 -76 -105 -85 -32 -16 -172 -153 -172 -167 0 -4 -16
-26 -35 -49 -19 -23 -35 -48 -35 -56 0 -8 -4 -14 -8 -14 -12 0 -51 -91 -51
-115 1 -11 -2 -41 -6 -67 -7 -45 3 -80 46 -160 5 -10 9 -26 9 -35 0 -10 10
-27 23 -38 26 -23 47 -59 47 -78 0 -13 43 -41 64 -42 5 0 10 14 12 31 2 17 8
44 14 59 8 22 13 25 24 16 12 -10 10 -20 -10 -61 -33 -68 -68 -268 -60 -345 3
-33 8 -94 12 -135 8 -117 43 -269 68 -304 13 -17 35 -53 51 -80 15 -28 45 -69
67 -91 41 -45 45 -67 27 -138 -10 -42 -7 -71 22 -213 12 -60 11 -63 -14 -107
-15 -25 -27 -51 -27 -57 0 -6 -32 -77 -71 -158 -119 -247 -197 -457 -235 -638
-14 -71 -28 -144 -31 -162 -2 -19 -10 -44 -18 -56 -55 -84 -126 -420 -139
-661 -8 -135 1 -156 44 -106 33 38 31 40 55 -56 8 -34 24 -83 35 -108 14 -33
20 -69 20 -123 0 -73 27 -281 51 -401 7 -32 21 -63 35 -77 39 -40 36 -78 -8
-94 -18 -7 -55 -21 -83 -32 -40 -16 -80 -20 -195 -22 l-145 -3 -65 47 c-101
73 -156 88 -260 71 -62 -10 -66 -10 -103 17 -146 102 -186 116 -299 104 l-76
-8 -71 51 c-98 71 -156 90 -254 81 l-77 -8 0 -58 c0 -51 3 -61 25 -78 26 -21
20 -37 -9 -26 -14 6 -16 -18 -16 -223 l0 -230 89 12 c49 7 93 15 99 19 5 3 60
-8 122 -23 107 -28 140 -40 109 -42 -8 0 -104 -12 -214 -27 l-200 -28 -3 -32
c-2 -23 2 -34 13 -38 9 -4 103 5 208 20 106 14 196 26 200 26 4 0 7 -24 5 -52
-3 -45 -6 -53 -23 -55 -79 -7 -322 -35 -332 -38 -9 -3 -10 -12 -2 -35 6 -16
15 -33 20 -36 9 -5 144 12 282 35 l48 8 -3 -46 c-3 -45 -4 -46 -38 -48 -19 -2
-64 -7 -100 -12 -36 -6 -84 -13 -107 -16 -27 -4 -43 -12 -43 -21 0 -18 -10
-18 -24 0 -8 10 -23 12 -56 7 -44 -6 -45 -7 -48 -45 l-3 -39 38 6 c21 3 101
13 178 22 77 9 152 20 167 25 27 8 28 7 28 -25 0 -26 -4 -34 -17 -33 -39 1
-233 -35 -226 -42 22 -21 118 -41 174 -38 l61 3 -7 -195 c-3 -107 -8 -205 -11
-217 -4 -21 -1 -23 36 -23 l40 0 0 68 c0 60 4 134 26 502 4 66 9 98 14 85 5
-11 6 -29 4 -40 -13 -77 -30 -615 -18 -615 5 0 10 21 11 48 1 26 4 104 8 175
l7 127 77 -5 c42 -2 94 -9 116 -15 22 -5 63 -10 90 -10 44 0 55 5 92 38 48 42
57 68 20 58 -12 -3 -65 -11 -117 -16 -52 -6 -102 -13 -111 -16 -9 -2 -28 0
-42 5 -19 8 -28 6 -37 -4 -7 -9 -26 -14 -46 -12 -33 2 -34 4 -34 43 0 40 1 42
37 49 20 4 74 8 120 11 46 2 87 5 91 7 15 8 140 36 212 47 41 6 83 14 93 16
15 5 17 -2 17 -56 0 -43 -4 -60 -12 -58 -7 1 -36 -1 -64 -5 -44 -6 -56 -13
-83 -48 -18 -22 -31 -42 -29 -44 2 -3 20 0 39 5 18 6 52 10 74 10 23 0 47 6
54 12 11 11 13 -19 8 -174 l-6 -188 55 0 54 0 1 38 c1 20 4 104 8 186 l6 150
28 7 c16 4 65 12 110 18 78 10 305 44 375 56 32 6 32 5 32 -33 l0 -39 -67 -11
c-38 -6 -93 -14 -123 -17 -62 -7 -86 -17 -76 -34 5 -7 -1 -11 -14 -11 -12 0
-19 -4 -15 -9 3 -5 -5 -17 -17 -25 -30 -21 -17 -21 129 5 131 23 256 39 262
34 1 -2 0 -28 -5 -57 -4 -29 -9 -45 -12 -35 -3 15 -10 18 -30 13 -15 -3 -76
-11 -135 -17 -59 -7 -115 -18 -125 -25 -16 -13 -16 -13 0 -14 11 0 15 -5 12
-14 -3 -9 -31 -16 -80 -21 -68 -6 -95 -17 -80 -33 4 -3 55 2 114 11 59 9 143
22 187 28 122 16 128 17 137 31 6 8 7 -26 3 -84 l-7 -98 41 0 41 0 0 58 c0 90
21 393 31 437 8 39 7 -17 -6 -370 -5 -126 -3 -140 9 -82 4 17 11 25 17 21 22
-13 161 -3 222 16 34 11 76 20 94 20 36 0 47 11 39 38 -6 17 -18 18 -123 18
-103 -1 -116 1 -119 17 -1 11 4 17 17 17 10 0 19 4 19 8 0 13 99 33 222 47
l108 11 25 -26 c14 -14 25 -28 25 -31 0 -3 -36 -11 -80 -18 -82 -14 -91 -21
-66 -56 13 -18 19 -19 97 -7 46 7 93 14 104 15 18 2 20 -5 23 -53 2 -47 0 -53
-11 -38 -13 16 -16 15 -52 -10 l-38 -27 88 -3 c64 -2 91 1 97 10 6 10 8 10 8
1 0 -10 35 -13 140 -13 77 0 140 4 140 8 0 4 -5 13 -12 20 -9 9 -9 12 2 12 8
0 60 7 115 15 99 15 100 15 118 -6 24 -30 22 -37 -15 -42 -18 -2 98 -5 257 -5
166 -1 295 2 300 7 14 13 87 17 105 6 8 -5 55 -11 105 -13 l90 -4 -23 25 -23
25 38 5 c28 3 46 -1 70 -17 18 -11 33 -24 33 -28 0 -5 201 -8 446 -8 383 0
445 2 435 14 -9 11 -9 16 -1 21 13 8 60 -13 60 -27 0 -4 150 -8 333 -7 l332 1
-40 19 c-27 12 -63 19 -110 19 -64 0 -75 3 -124 36 -65 44 -98 54 -181 55 -60
0 -70 4 -135 46 -68 45 -73 47 -166 52 -90 6 -100 8 -141 39 -75 57 -104 67
-204 67 -91 0 -91 0 -152 42 -74 53 -92 60 -92 39 0 -8 17 -24 38 -35 20 -10
51 -38 67 -61 76 -104 73 -103 127 -70 69 42 143 13 141 -57 -3 -129 -25 -183
-77 -183 -14 0 -69 15 -123 34 -54 19 -118 40 -143 46 -25 7 -56 20 -70 30
-30 21 -89 47 -152 66 -45 14 -131 52 -206 92 -18 10 -30 21 -26 25 4 4 -3 6
-17 6 -25 -2 -79 16 -79 26 0 4 5 3 10 0 11 -7 40 12 40 25 0 5 -9 6 -20 3
-15 -4 -19 -2 -14 10 3 10 -2 17 -14 21 -10 4 -29 17 -41 30 l-23 24 22 7 c27
8 87 -36 96 -70 9 -35 27 -31 67 13 7 7 22 23 35 35 15 14 20 27 15 41 -3 12
-6 31 -5 44 1 16 -4 22 -18 22 -11 0 -20 -4 -20 -9 0 -4 -10 -8 -22 -7 -16 1
-24 8 -26 24 -3 20 -1 22 14 14 9 -5 25 -7 36 -4 17 4 18 12 14 75 -5 71 -20
105 -32 74 -3 -9 -12 -17 -20 -17 -8 0 -14 -6 -14 -12 -1 -7 -10 -2 -20 11
-12 13 -26 21 -35 17 -19 -7 -19 -1 1 18 8 9 11 16 5 16 -6 0 -11 7 -11 16 0
8 5 12 10 9 18 -11 30 5 18 25 -9 15 -9 24 1 43 7 14 10 34 6 46 -4 12 -2 21
4 21 6 0 8 7 4 16 -3 8 -12 13 -19 10 -8 -3 -14 -1 -14 4 0 6 -7 10 -15 10 -8
0 -15 4 -15 10 0 5 7 7 15 4 9 -4 15 0 15 10 0 9 5 16 11 16 6 0 22 9 36 19
13 11 30 18 38 15 7 -3 16 0 21 7 4 8 3 10 -4 5 -7 -4 -12 -3 -12 2 0 16 13
22 27 11 17 -14 60 12 72 44 10 26 4 37 -9 17 -7 -10 -10 -11 -10 -2 0 6 -7
12 -16 12 -8 0 -13 4 -10 9 3 5 16 7 27 4 18 -5 20 -3 14 16 -4 13 -2 28 5 36
10 12 10 18 1 29 -10 12 -8 13 8 9 17 -4 24 2 37 32 10 25 20 35 30 31 9 -4
18 3 24 17 5 13 9 16 10 7 0 -12 2 -13 9 -1 7 11 10 8 16 -10 5 -14 3 -25 -4
-27 -6 -2 -11 -20 -11 -40 l1 -37 21 39 c20 39 20 39 33 17 l12 -23 20 26 c16
20 19 35 15 71 -3 32 -1 45 8 45 7 0 10 7 6 16 -4 10 0 15 12 13 33 -3 44 1
39 15 -8 20 40 119 55 114 17 -6 41 41 39 76 -2 40 -4 40 -42 20 -24 -12 -34
-13 -37 -5 -2 6 -14 24 -26 39 -13 15 -21 33 -19 40 3 6 0 12 -6 12 -16 0 -14
57 2 72 8 7 12 21 9 32 -4 14 -1 18 9 14 8 -3 26 0 39 7 12 7 31 10 40 8 11
-3 19 3 23 17 4 18 3 19 -9 9 -8 -6 -16 -10 -19 -7 -8 8 7 48 19 48 11 0 -21
21 -61 39 -13 6 -23 16 -23 23 0 9 3 8 10 -2 7 -11 10 -8 10 16 0 16 7 39 15
50 8 10 15 29 15 40 0 25 -26 40 -33 19 -8 -20 -72 -4 -71 18 1 9 -4 17 -12
17 -8 0 -14 -4 -14 -10 0 -5 -4 -10 -10 -10 -23 0 -7 29 30 55 44 30 51 59 26
107 -10 19 -11 29 -3 37 8 8 6 11 -7 11 -9 0 -15 4 -12 9 3 4 -2 17 -10 27
-14 17 -15 17 -10 1 3 -11 2 -16 -4 -12 -26 16 7 135 37 135 14 0 11 26 -9 78
-10 28 -5 38 22 45 16 4 24 -2 35 -26 23 -52 50 -81 69 -74 10 4 15 11 12 16
-9 14 43 20 54 6 7 -8 23 -11 41 -8 22 3 34 -1 43 -13 20 -26 27 -4 30 86 2
78 1 81 -23 87 -13 3 -31 2 -40 -4 -9 -5 -27 -6 -41 -3 -14 4 -33 3 -42 -2
-12 -6 -18 -5 -18 2 0 7 -5 8 -12 3 -25 -15 -58 -14 -58 2 0 15 16 20 53 17
10 -1 20 5 24 13 3 9 26 28 52 42 48 28 63 42 55 54 -6 10 -75 4 -83 -7 -10
-14 -71 -44 -71 -35 0 5 -19 5 -42 1 -51 -10 -66 -5 -70 23 -2 15 -9 21 -23
19 -11 -1 -33 -4 -50 -6 -16 -3 -42 -9 -56 -15 -15 -5 -29 -8 -32 -5 -2 3 -35
6 -73 7 -58 2 -69 5 -69 20 0 9 3 16 6 15 3 -2 13 3 22 11 9 7 23 11 31 8 8
-3 17 -1 20 6 5 9 7 9 12 0 6 -14 26 0 37 27 4 12 6 12 6 1 1 -11 6 -10 21 4
15 14 20 15 20 4 0 -11 2 -11 11 1 8 11 12 12 16 3 6 -16 33 -17 33 -2 0 8 4
8 14 0 11 -9 20 -10 35 -1 30 16 26 34 -5 26 -24 -6 -26 -5 -20 16 3 13 6 27
6 31 0 5 5 5 10 2 6 -3 10 1 10 10 0 15 -4 15 -34 -3 -26 -15 -58 -22 -128
-25 -51 -3 -98 -7 -105 -8 -24 -8 -14 16 15 31 24 13 27 19 18 31 -14 19 -43
17 -108 -9 -74 -29 -253 -49 -265 -29 -3 4 -11 3 -19 -4 -12 -10 -19 -7 -39
11 -13 13 -22 26 -19 31 2 4 -4 8 -13 9 -53 2 -73 6 -73 12 0 4 -9 7 -20 7
-11 1 -29 1 -40 2 -11 0 -20 4 -20 10 0 5 -18 9 -40 9 -33 0 -38 3 -33 17 5
12 2 15 -9 10 -9 -3 -24 1 -35 10 -17 14 -17 14 0 9 11 -3 24 -3 30 1 7 4 14
8 17 8 3 1 20 9 39 19 18 10 42 15 52 13 17 -5 49 24 49 44 0 15 -60 28 -135
30 -90 3 -117 11 -65 20 l35 6 -43 2 c-24 0 -41 5 -38 9 8 13 157 6 166 -8 5
-8 9 -7 13 4 4 9 17 16 31 16 14 0 28 5 31 10 4 6 10 8 15 5 13 -8 90 25 90
39 0 7 4 6 9 -3 5 -8 11 -9 15 -3 3 6 2 13 -4 17 -16 10 -12 29 11 53 11 12
17 27 13 33 -4 8 -9 7 -15 -2 -7 -11 -11 -10 -23 6 -20 26 -20 49 -1 41 11 -4
15 1 15 19 0 25 -30 37 -30 13 0 -7 -5 -5 -11 5 -6 11 -9 30 -6 43 4 21 1 24
-26 24 -25 0 -28 2 -17 15 10 12 16 13 26 4 11 -9 14 -8 14 0 0 7 6 19 14 26
12 12 18 11 40 -10 18 -17 26 -20 26 -10 0 18 21 20 38 3 9 -9 12 -8 12 5 0 9
-6 17 -12 17 -7 0 -1 12 14 27 21 21 30 24 41 15 17 -15 27 -6 27 25 0 12 5
23 11 23 5 0 7 5 4 11 -4 6 -13 8 -21 5 -11 -4 -11 -1 2 18 10 16 12 26 5 31
-20 12 -11 30 18 42 23 8 29 15 24 32 -3 13 -1 21 7 21 19 0 68 55 72 81 3 21
8 24 46 24 40 0 42 1 48 35 3 19 7 45 10 58 3 16 0 22 -12 22 -37 0 8 28 56
34 40 5 50 10 50 26 0 10 -10 26 -22 34 -24 17 -4 36 -278 -251 -43 -46 -83
-83 -89 -83 -16 0 -13 -21 6 -42 21 -23 13 -31 -34 -32 -31 -2 -39 -6 -41 -24
-2 -14 -10 -22 -23 -22 -11 0 -33 -14 -49 -30 -30 -30 -70 -40 -70 -17 0 7 -3
8 -8 2 -12 -17 -47 -41 -38 -27 15 25 -6 34 -27 11 -13 -14 -22 -18 -25 -11
-5 16 -55 15 -70 0 -10 -10 -15 -10 -21 1 -6 9 -11 10 -15 2 -4 -6 -12 -9 -17
-5 -5 3 -16 1 -24 -6 -9 -7 -15 -8 -20 0 -3 5 0 12 7 14 69 22 89 27 98 21 5
-3 10 1 10 10 0 8 11 20 25 25 14 5 25 15 25 22 0 18 45 65 70 73 11 3 20 10
20 15 0 5 15 12 34 16 19 3 42 15 52 25 18 20 54 26 54 8 0 -5 5 -7 10 -4 6 4
8 15 5 26 -4 12 -1 21 9 25 22 8 27 31 14 60 -10 22 -17 25 -42 20 -17 -4 -32
-11 -34 -16 -2 -6 -12 -10 -21 -10 -26 0 -53 -34 -45 -55 6 -15 4 -17 -10 -12
-10 4 -19 1 -23 -9 -6 -16 -41 -34 -78 -41 -30 -6 -104 -7 -110 -1 -11 11 23
59 52 73 26 13 31 19 25 36 -7 19 -16 21 -88 20 -43 0 -90 -1 -103 -1 -13 0
-30 5 -38 11 -11 10 -10 15 7 31 21 20 27 34 10 23 -22 -14 -8 14 15 29 18 12
30 13 50 6 36 -14 45 -13 39 5 -7 18 7 20 24 3 7 -7 12 -8 13 -2 0 5 2 17 4
27 2 13 -2 16 -20 13 -18 -3 -25 1 -30 21 -4 17 -10 22 -18 16 -7 -4 -36 -8
-64 -8 -29 0 -53 -4 -53 -10 0 -5 -6 -3 -13 7 -10 12 -17 14 -30 6 -26 -14
-38 -6 -22 16 11 14 27 19 65 19 28 0 48 2 46 5 -7 6 20 32 34 32 6 0 18 7 27
16 11 11 19 12 26 5 14 -14 64 -14 72 -1 3 6 19 10 34 10 23 0 31 7 42 32 16
39 39 64 69 73 13 4 19 12 16 21 -3 8 -1 14 4 14 19 0 10 16 -10 17 -11 1 -18
-2 -15 -8 4 -5 -3 -9 -13 -9 -11 0 -23 -7 -26 -16 -3 -8 -11 -12 -17 -8 -6 3
-14 3 -18 -2 -10 -14 -49 -34 -67 -34 -9 0 -28 -9 -42 -20 -23 -19 -27 -19
-35 -5 -10 18 -2 26 65 70 35 23 50 49 52 90 1 22 32 33 48 17 7 -7 16 -7 28
0 14 9 24 7 46 -11 18 -14 30 -18 34 -11 4 6 13 13 21 14 8 2 21 6 29 9 8 3
29 10 45 15 19 5 30 16 31 28 2 33 16 74 25 74 5 0 9 11 9 25 0 14 -6 25 -12
25 -10 0 -10 2 -1 8 6 4 16 20 22 35 8 19 26 34 61 50 38 17 50 27 50 44 0 12
-4 25 -10 28 -5 3 -10 18 -10 32 0 22 -3 24 -24 19 -19 -5 -26 -1 -31 13 -7
23 14 61 32 61 7 0 13 6 13 14 0 8 10 22 21 30 21 14 21 16 5 41 -9 14 -14 30
-11 35 3 6 1 10 -4 10 -6 0 -11 6 -11 13 0 7 -9 18 -20 25 -12 7 -18 17 -15
23 4 5 1 8 -6 7 -9 -2 -13 10 -12 40 0 41 0 42 -33 42 -18 0 -37 -6 -41 -12
-11 -18 -49 -38 -57 -31 -3 3 -1 12 5 20 9 10 8 13 -4 13 -8 0 -18 8 -23 18
-8 20 -8 20 0 48 5 16 0 23 -29 34 -41 16 -42 20 -15 40 26 19 25 30 -2 30
-19 0 -20 2 -8 10 10 6 11 13 5 18 -6 4 -18 19 -27 33 -17 26 -17 27 5 22 22
-5 22 -5 2 10 -21 17 -90 23 -99 8 -7 -11 18 -33 27 -24 4 3 7 1 7 -5 0 -14
-44 -27 -60 -17 -6 4 -9 12 -7 18 2 7 0 20 -5 29 -7 15 -1 21 32 35 22 10 42
24 45 32 6 16 -35 61 -57 62 -7 0 -3 4 9 9 15 6 21 15 17 25 -4 9 -13 14 -20
11 -10 -4 -11 1 -3 22 6 15 15 29 21 33 6 4 1 15 -12 27 -21 19 -22 24 -10 51
7 17 10 38 6 47 -12 30 16 43 73 32 51 -9 55 -8 85 19 17 15 32 31 34 36 2 4
12 7 22 7 10 0 22 5 25 10 9 14 145 13 145 -1 0 -6 12 -9 28 -8 29 3 52 -6 52
-22 0 -5 -8 -9 -17 -7 -11 2 -18 -3 -18 -12 0 -9 11 -16 28 -18 16 -2 25 -8
21 -14 -4 -6 3 -5 16 2 14 7 39 9 67 5 42 -6 44 -5 39 13 -12 37 9 31 57 -14
26 -25 52 -42 57 -39 6 3 10 -1 10 -9 0 -9 4 -16 8 -16 19 0 5 57 -21 83 -32
31 -49 35 -41 10 4 -12 -1 -9 -15 7 -11 14 -21 28 -21 33 0 11 15 8 28 -5 9
-9 12 -8 12 4 0 9 -23 27 -55 43 -30 14 -53 30 -51 34 9 13 -98 119 -127 126
-15 4 -27 11 -27 16 0 5 -9 9 -19 9 -11 0 -21 9 -25 23 -8 28 -92 79 -171 102
-33 10 -67 27 -76 37 -8 11 -27 21 -42 22 -15 2 -35 11 -45 19 -10 9 -33 17
-52 19 -19 1 -46 8 -60 15 -14 7 -31 13 -37 13 -7 0 -13 5 -13 11 0 5 -4 7
-10 4 -5 -3 -23 4 -39 16 -19 14 -49 23 -83 26 -67 5 -65 5 -112 -1 -36 -4
-63 -16 -38 -16 26 0 10 -18 -27 -28 -47 -15 -51 -15 -51 -2 0 6 5 10 10 10 6
0 19 9 30 20 11 11 16 20 10 20 -5 0 -10 5 -10 10 0 6 7 10 16 10 9 0 14 6 11
13 -3 8 -23 11 -61 9 -39 -1 -64 3 -79 13 -30 21 -91 17 -172 -11z m211 -49
c-25 -19 -46 -19 -46 0 0 10 10 15 33 15 30 -1 31 -1 13 -15z m224 -41 c0 -2
-9 -4 -21 -4 -11 0 -18 4 -14 10 5 8 35 3 35 -6z m620 -229 c7 -8 20 -15 29
-15 14 -1 14 -2 -2 -11 -13 -7 -25 -5 -47 8 -17 9 -30 21 -30 25 0 14 37 9 50
-7z m-625 -187 c130 -64 159 -83 173 -111 15 -31 8 -67 -13 -67 -19 0 -24 -10
-36 -76 -19 -102 -95 -196 -189 -236 -73 -30 -114 -52 -137 -71 -17 -15 -25
-17 -42 -7 -14 7 -27 8 -38 2 -38 -22 -123 35 -123 82 0 11 -12 37 -27 59 -43
62 -30 125 44 211 18 22 38 56 43 76 5 20 24 49 41 65 17 17 37 42 45 56 12
24 51 42 139 64 15 3 31 -3 120 -47z m1015 -148 c0 -5 -4 -10 -10 -10 -5 0
-10 5 -10 10 0 6 5 10 10 10 6 0 10 -4 10 -10z m-1837 -390 c13 -8 22 -8 31 0
10 7 17 6 26 -5 7 -8 21 -15 31 -15 50 0 123 -78 92 -99 -5 -3 -27 -37 -48
-76 -21 -38 -45 -80 -53 -93 -14 -21 -13 -23 6 -29 29 -7 28 -14 -8 -54 -16
-19 -30 -37 -30 -40 0 -3 -9 -16 -20 -29 -16 -18 -20 -20 -20 -7 0 10 4 17 8
17 5 0 9 6 9 13 0 16 -36 20 -53 6 -9 -7 -19 -6 -33 3 -11 7 -24 9 -28 5 -4
-5 -1 -12 7 -17 13 -8 12 -10 -2 -10 -12 0 -18 -8 -18 -22 0 -26 -7 -37 -34
-58 -12 -9 -17 -10 -12 -2 4 7 2 12 -6 12 -7 0 -18 -8 -24 -18 -16 -25 11
-113 37 -119 11 -3 18 -11 15 -18 -2 -7 4 -19 15 -28 20 -18 25 -37 9 -37 -5
0 -10 7 -10 16 0 12 -6 15 -25 10 -14 -4 -25 -2 -25 3 0 5 -9 12 -19 16 -11 3
-41 26 -67 50 -26 25 -50 42 -55 39 -5 -2 -11 -21 -15 -40 -10 -54 -41 -130
-50 -124 -5 3 -8 14 -7 25 1 11 6 60 11 109 7 69 13 92 28 103 14 10 19 26 18
61 0 26 1 37 3 25 7 -37 28 -26 40 20 6 23 14 53 19 66 5 17 4 22 -4 17 -8 -5
-10 -2 -6 8 3 9 1 16 -5 16 -6 0 -11 8 -11 17 0 13 -3 14 -12 5 -20 -20 -28
-14 -28 19 0 24 -4 30 -15 25 -9 -3 -15 0 -15 9 0 8 7 15 15 15 14 0 11 12
-13 50 -2 2 -7 -2 -12 -10 -9 -13 -10 -13 -10 0 0 8 4 21 9 29 7 11 12 10 29
-7 l20 -20 13 27 c8 14 17 28 20 31 4 3 8 12 9 20 5 35 -1 50 -20 50 -22 0
-27 -15 -9 -26 8 -4 7 -9 -2 -15 -23 -15 -39 -10 -39 11 0 11 5 20 10 20 6 0
10 13 10 29 0 21 -6 32 -21 36 -11 4 -23 4 -26 1 -4 -3 -12 -1 -19 5 -11 9 -6
15 23 30 21 11 42 19 47 19 6 0 29 -20 52 -44 l41 -45 44 23 c53 26 106 78
101 97 -2 8 12 -9 30 -37 18 -29 41 -57 51 -64z m-328 -110 c3 -5 -1 -10 -9
-10 -9 0 -16 5 -16 10 0 6 4 10 9 10 6 0 13 -4 16 -10z m1495 -20 c0 -6 -11
-8 -27 -4 -40 10 -41 14 -5 14 18 0 32 -5 32 -10z m44 -15 c4 -11 -1 -15 -19
-15 -24 0 -32 10 -18 23 11 12 31 8 37 -8z m-1027 -100 c-23 -22 -33 -18 -12
5 10 11 20 18 23 16 2 -3 -3 -12 -11 -21z m1228 -94 c-13 -50 -75 -69 -96 -30
-11 21 0 38 24 39 4 0 7 6 7 14 0 19 30 25 53 12 13 -8 16 -18 12 -35z m-1238
-23 c-3 -8 -6 -5 -6 6 -1 11 2 17 5 13 3 -3 4 -12 1 -19z m-30 -40 c-3 -8 -6
-5 -6 6 -1 11 2 17 5 13 3 -3 4 -12 1 -19z m19 -42 c3 -8 -1 -27 -9 -43 -16
-29 -19 -26 -30 24 -7 29 29 46 39 19z m-156 -36 c0 -5 -4 -10 -10 -10 -5 0
-10 5 -10 10 0 6 5 10 10 10 6 0 10 -4 10 -10z m1430 -10 c0 -5 -10 -10 -22
-9 -22 0 -22 1 -3 9 11 5 21 9 23 9 1 1 2 -3 2 -9z m-1460 -50 c0 -28 -11 -51
-21 -44 -10 6 -12 57 -3 67 11 10 24 -3 24 -23z m1365 -10 c-3 -5 -11 -10 -16
-10 -6 0 -7 5 -4 10 3 6 11 10 16 10 6 0 7 -4 4 -10z m-1215 -180 c0 -5 -4
-10 -10 -10 -5 0 -10 5 -10 10 0 6 5 10 10 10 6 0 10 -4 10 -10z m1268 -19 c6
-1 12 -6 12 -11 0 -18 -45 -80 -58 -80 -7 0 -23 -7 -36 -16 -23 -14 -25 -14
-40 8 -9 13 -16 17 -16 9 0 -8 -3 -12 -6 -8 -15 15 10 47 46 58 22 7 42 20 45
30 3 9 13 16 23 14 9 -2 23 -4 30 -4z m-1561 -166 c1 -105 -2 -145 -10 -144
-30 4 -58 -2 -52 -11 3 -5 12 -7 20 -3 8 3 15 1 15 -4 0 -34 -45 -16 -52 21
-4 19 -1 24 13 23 10 -1 15 -5 13 -9 -3 -4 -1 -8 4 -8 17 0 20 25 11 76 -7 36
-5 69 6 123 8 40 15 75 15 77 0 2 3 4 8 4 4 0 8 -65 9 -145z m1397 9 c9 -3 16
-11 16 -17 0 -6 -3 -8 -6 -4 -4 3 -14 -1 -22 -10 -11 -10 -17 -12 -20 -4 -6
19 -23 12 -20 -9 2 -10 0 -19 -4 -20 -32 -1 -39 2 -36 17 2 10 17 25 33 34 36
20 39 21 59 13z m-269 -254 c3 -5 1 -10 -4 -10 -6 0 -11 5 -11 10 0 6 2 10 4
10 3 0 8 -4 11 -10z m-815 -130 c0 -9 -23 -30 -33 -30 -5 0 -4 6 2 14 10 11 8
15 -6 19 -10 3 -6 4 10 4 15 -1 27 -4 27 -7z m177 -67 c-13 -21 -30 -38 -38
-38 -8 0 -23 -10 -34 -22 -25 -27 -42 -29 -48 -5 -5 26 22 75 39 68 8 -3 14
-1 14 4 0 6 14 10 30 10 17 0 30 5 30 10 0 6 7 10 15 10 12 0 10 -8 -8 -37z
m-246 -115 c0 -9 2 -9 5 -2 8 18 44 4 44 -17 0 -11 5 -19 10 -19 6 0 10 5 10
12 0 6 2 9 5 7 11 -12 -9 -49 -27 -49 -10 0 -16 5 -13 10 8 13 -17 9 -27 -4
-7 -11 -58 19 -58 35 0 6 5 7 12 3 7 -5 9 -2 5 9 -5 14 4 24 26 26 4 1 7 -5 8
-11z m704 2 c-3 -5 -13 -10 -21 -10 -8 0 -14 5 -14 10 0 6 9 10 21 10 11 0 17
-4 14 -10z m450 -460 c3 -5 1 -10 -4 -10 -6 0 -11 5 -11 10 0 6 2 10 4 10 3 0
8 -4 11 -10z m-332 -47 c-3 -10 -3 -15 2 -11 4 4 14 0 20 -9 10 -14 16 -15 28
-5 12 10 16 10 21 -3 3 -8 15 -15 26 -15 11 0 20 -4 20 -10 0 -5 9 -10 19 -10
30 0 52 -11 45 -22 -4 -6 0 -14 7 -19 9 -6 1 -7 -23 -3 -29 5 -38 3 -38 -7 0
-8 -12 -15 -30 -16 -16 -1 -41 -10 -56 -20 -25 -16 -27 -16 -39 0 -7 10 -26
17 -46 17 -19 0 -56 7 -84 16 -27 9 -60 16 -72 15 -13 0 -23 4 -23 9 0 6 -7
10 -15 10 -8 0 -15 8 -15 17 0 13 3 14 12 5 19 -19 30 -14 18 8 -10 18 -8 20
27 19 34 -1 35 -2 13 -9 l-25 -8 26 -1 c15 -1 32 -8 39 -16 14 -17 48 -14 62
6 8 11 9 11 4 -3 -6 -20 -2 -21 32 -11 17 4 22 11 19 24 -3 11 -1 19 4 19 4 0
6 7 2 16 -3 9 0 20 8 25 19 12 19 12 12 -8z m-143 -28 c0 -8 -2 -15 -4 -15 -2
0 -6 7 -10 15 -3 8 -1 15 4 15 6 0 10 -7 10 -15z m-900 -129 c0 -8 -4 -17 -8
-20 -4 -2 -8 4 -8 15 0 10 4 19 8 19 4 0 8 -6 8 -14z m1080 -36 c0 -5 -5 -10
-11 -10 -5 0 -7 5 -4 10 3 6 8 10 11 10 2 0 4 -4 4 -10z m10 -34 c0 -3 -4 -8
-10 -11 -5 -3 -10 -1 -10 4 0 6 5 11 10 11 6 0 10 -2 10 -4z m624 -381 c3 -8
12 -15 20 -15 9 0 13 -6 10 -14 -9 -23 22 -36 81 -36 28 0 35 -4 35 -20 0 -18
-11 -25 -33 -21 -4 1 -18 -4 -30 -11 -12 -7 -25 -11 -29 -10 -3 1 -9 -5 -12
-13 -6 -16 22 -35 51 -35 12 0 14 -3 6 -8 -7 -4 -9 -12 -5 -18 9 -13 52 -13
52 -1 0 6 10 -3 21 -17 14 -18 28 -26 40 -23 10 3 20 -1 23 -9 3 -9 -1 -14
-13 -14 -10 0 -21 -3 -25 -7 -12 -12 -45 -10 -50 3 -7 17 -70 34 -129 34 -58
0 -161 44 -153 66 3 7 -3 18 -14 24 -18 10 -18 40 1 40 4 0 6 -7 3 -15 -7 -18
0 -19 18 -2 27 26 74 51 90 49 9 -2 20 2 24 9 4 7 3 10 -2 7 -15 -9 -54 10
-54 26 0 10 -6 13 -17 9 -10 -3 -16 -3 -13 0 5 5 75 33 91 36 4 0 9 -6 13 -14z
m-304 -100 c15 -29 7 -43 -14 -26 -8 7 -19 10 -24 7 -13 -8 -11 28 2 36 17 12
22 10 36 -17z m54 -30 c3 -9 0 -15 -9 -15 -9 0 -12 6 -9 15 4 8 7 15 9 15 2 0
5 -7 9 -15z m61 -5 c-3 -5 -12 -10 -18 -10 -7 0 -6 4 3 10 19 12 23 12 15 0z
m-160 -39 c-3 -5 -1 -12 4 -15 12 -8 8 -24 -15 -63 -24 -41 -34 -41 -60 0
l-22 34 27 26 c24 24 80 39 66 18z m-208 -23 c-3 -8 -6 -5 -6 6 -1 11 2 17 5
13 3 -3 4 -12 1 -19z m1075 5 c12 -14 13 -24 6 -43 l-10 -25 -14 30 c-23 53
-13 73 18 38z m-817 -122 c0 -6 7 -16 15 -21 13 -8 12 -10 -2 -10 -10 0 -18
-4 -18 -10 0 -5 -5 -10 -11 -10 -6 0 -8 9 -4 20 9 27 -1 25 -28 -5 -28 -31
-51 -21 -41 18 6 28 28 36 38 15 3 -7 3 -3 0 9 -4 19 -2 21 23 14 15 -4 28
-13 28 -20z m85 5 c8 0 21 -12 28 -26 l13 -25 -6 28 -6 29 24 -19 c14 -10 22
-24 20 -30 -6 -15 -53 -18 -53 -3 0 6 -15 10 -32 10 -28 0 -33 4 -34 26 -2 20
2 24 15 19 9 -4 23 -8 31 -9z m-1776 -481 c-4 -8 -8 -15 -10 -15 -2 0 -4 7 -4
15 0 8 4 15 10 15 5 0 7 -7 4 -15z m-89 -105 c-4 -12 0 -26 10 -36 10 -10 13
-24 9 -38 -9 -30 -14 -33 -24 -16 -11 17 -13 93 -3 103 12 12 14 7 8 -13z m27
-199 c2 -17 1 -31 -3 -31 -11 0 -21 31 -26 75 -4 39 -3 40 10 14 8 -14 16 -40
19 -58z m-17 -101 c5 -36 -6 -91 -16 -84 -10 6 -5 -51 10 -123 5 -27 5 -43 -2
-46 -6 -2 -6 -11 2 -25 7 -13 8 -22 2 -22 -6 0 -6 -11 -1 -30 8 -28 7 -29 -11
-19 -11 5 -19 18 -18 27 1 9 0 19 -1 22 -3 9 -13 85 -12 100 0 8 3 75 8 147 7
124 8 131 21 105 8 -15 16 -38 18 -52z m603 -38 c-14 -3 -15 -6 -6 -16 7 -7
20 -11 30 -8 14 3 17 0 12 -12 -3 -9 -10 -16 -15 -16 -15 0 -10 -55 7 -76 15
-18 15 -18 10 8 -3 14 -9 33 -12 42 -3 9 -1 16 4 16 6 0 13 -9 17 -19 11 -34
15 -141 6 -141 -5 0 -9 -17 -8 -38 1 -39 -8 -68 -49 -159 -13 -28 -24 -56 -24
-61 0 -14 -48 -55 -57 -49 -20 12 -33 -12 -36 -66 -1 -43 2 -61 16 -74 14 -14
17 -14 17 -3 1 11 5 10 16 -5 10 -13 17 -16 22 -9 11 18 71 27 87 14 8 -7 13
-16 10 -20 -3 -5 3 -11 14 -15 20 -6 26 -45 6 -45 -5 0 -41 13 -80 28 -38 16
-90 32 -115 35 -25 3 -103 20 -175 36 -71 17 -182 42 -245 56 -283 64 -277 61
-230 110 l35 36 -30 23 -30 24 45 12 c110 30 150 43 150 50 0 11 77 27 135 29
28 1 90 -5 140 -13 91 -16 112 -13 84 8 -17 12 -23 49 -20 114 1 25 6 35 21
39 11 3 20 12 20 19 0 8 7 14 15 14 8 0 15 5 15 10 0 6 6 10 14 10 20 0 37 25
30 44 -3 9 -10 14 -14 11 -5 -3 -11 -1 -15 5 -4 6 5 10 19 10 14 0 26 4 26 10
0 5 13 7 30 4 26 -6 30 -4 30 15 0 11 5 21 10 21 6 0 10 -4 10 -10 0 -5 7 -10
16 -10 8 0 13 4 9 9 -6 11 25 20 40 12 6 -3 2 -7 -7 -9z m-2113 -95 c31 -15
55 -39 49 -48 -11 -18 -65 -8 -104 17 -40 26 -46 35 -34 47 8 7 61 -2 89 -16z
m425 -129 c45 -31 47 -45 8 -51 -26 -3 -42 2 -75 26 -24 17 -43 34 -43 39 0
17 78 7 110 -14z m-210 -29 l35 -31 -42 6 c-54 8 -93 25 -93 43 0 26 63 14
100 -18z m621 -92 c44 -29 43 -41 -3 -45 -29 -2 -46 3 -73 24 -19 14 -35 30
-35 35 0 19 77 9 111 -14z m-224 -19 c36 -25 44 -42 16 -34 -10 3 -37 10 -60
16 -41 10 -51 19 -36 33 13 13 47 7 80 -15z m3407 -9 c-3 -5 -10 -7 -15 -3 -5
3 -7 10 -3 15 3 5 10 7 15 3 5 -3 7 -10 3 -15z m-2793 -81 c22 -12 39 -25 39
-29 0 -5 -15 -11 -34 -14 -26 -5 -42 -1 -70 17 -20 12 -36 29 -36 36 0 20 58
14 101 -10z m2573 0 c-3 -4 -12 -8 -20 -8 -8 0 -13 4 -10 8 3 5 12 9 20 9 8 0
13 -4 10 -9z m-2804 -18 c0 -12 -8 -12 -35 0 -18 8 -17 9 8 9 15 1 27 -3 27
-9z m-683 -262 c-3 -7 -5 -2 -5 12 0 14 2 19 5 13 2 -7 2 -19 0 -25z m265 1
c66 -18 116 -35 111 -39 -11 -10 -352 -45 -360 -37 -3 4 -2 26 3 49 8 37 13
44 39 49 57 12 89 9 207 -22z m-270 -166 c-2 -29 -9 -53 -14 -53 -7 0 -9 19
-4 53 3 28 6 61 7 72 l0 20 8 -20 c4 -11 5 -44 3 -72z m586 26 l-3 -34 -135
-17 c-74 -9 -170 -20 -213 -24 -43 -3 -103 -12 -135 -18 l-57 -11 0 -37 c0
-35 2 -37 45 -49 38 -9 42 -13 25 -19 -11 -5 -30 -9 -43 -9 -13 -1 -29 -12
-40 -30 l-18 -29 -1 41 c-1 22 2 46 8 53 5 6 8 45 7 85 l-3 74 30 2 c40 4 418
52 475 62 55 9 62 3 58 -40z m167 1 c16 -7 13 -9 -17 -9 -21 -1 -38 4 -38 9 0
12 27 12 55 0z m1500 -10 c3 -6 -1 -7 -9 -4 -18 7 -21 14 -7 14 6 0 13 -4 16
-10z m-1403 -45 c-4 -25 -4 -25 57 -19 73 8 85 -10 14 -21 -27 -3 -58 -9 -70
-12 -29 -7 -32 -43 -3 -43 10 0 23 -6 27 -14 10 -18 69 -23 113 -8 57 18 222
35 255 25 30 -8 31 -9 23 -49 -7 -36 -12 -41 -36 -42 -30 -1 -331 -45 -457
-67 -62 -11 -81 -11 -87 -2 -8 11 -1 83 9 100 2 4 28 7 56 7 51 0 52 1 53 31
1 16 7 49 14 72 7 23 14 48 16 55 6 23 21 12 16 -13z m1498 14 c0 -5 4 -8 9
-4 5 3 12 1 16 -5 10 -16 -31 -12 -45 5 -10 12 -10 15 4 15 9 0 16 -5 16 -11z
m135 -59 c7 -12 -2 -12 -30 0 -19 8 -19 9 2 9 12 1 25 -3 28 -9z m359 -11 c-3
-5 -3 -9 0 -9 2 0 12 -3 22 -7 13 -5 16 -3 11 10 -5 12 -1 17 12 17 23 0 37
-30 19 -42 -10 -6 -9 -8 3 -8 21 0 55 -38 51 -59 -1 -9 7 -21 20 -26 32 -15
32 -28 -2 -47 -25 -14 -35 -15 -58 -5 -15 6 -30 16 -33 20 -4 5 -22 11 -40 13
-38 4 -109 33 -109 44 0 15 28 31 35 20 3 -5 -2 -10 -12 -11 -10 0 -3 -5 15
-10 28 -8 36 -7 46 7 10 13 15 14 21 4 6 -10 9 -9 16 1 14 23 11 42 -7 35 -8
-3 -12 -2 -9 4 3 6 -1 10 -9 10 -11 0 -16 9 -16 30 0 22 4 28 15 24 8 -4 12
-10 9 -15z m-2094 6 c0 -2 -9 -9 -20 -15 -22 -12 -44 -5 -35 11 6 9 55 13 55
4z m1795 -14 c-3 -6 -11 -11 -17 -11 -6 0 -6 6 2 15 14 17 26 13 15 -4z
m-1965 -13 c0 -21 -6 -23 -53 -25 -28 -2 -110 -12 -182 -24 -83 -14 -144 -20
-168 -15 -80 15 -31 28 238 61 117 15 155 20 163 24 1 0 2 -9 2 -21z m2045
-20 c40 -18 29 -29 -12 -11 -21 8 -40 17 -42 19 -9 9 30 3 54 -8z m75 -30 c0
-20 -8 -22 -29 -9 -16 11 -8 28 14 28 8 0 15 -9 15 -19z m310 -28 c0 -5 -4
-10 -10 -10 -5 0 -10 5 -10 10 0 6 5 10 10 10 6 0 10 -4 10 -10z m150 -30 c0
-5 -6 -10 -14 -10 -8 0 -18 5 -21 10 -3 6 3 10 14 10 12 0 21 -4 21 -10z
m-2493 -32 c-3 -7 -5 -2 -5 12 0 14 2 19 5 13 2 -7 2 -19 0 -25z m934 -25 l42
-28 -44 -13 c-24 -7 -73 -13 -109 -15 -64 -2 -65 -2 -68 26 -4 36 12 55 51 60
51 7 84 -1 128 -30z m-287 -46 c-6 -49 -8 -54 -21 -41 -8 8 -19 12 -24 8 -10
-6 18 61 35 84 15 20 17 8 10 -51z m2126 53 c0 -5 -5 -10 -11 -10 -5 0 -7 5
-4 10 3 6 8 10 11 10 2 0 4 -4 4 -10z m-2779 -100 c-9 -24 -10 -24 -10 7 -1
17 2 40 7 50 6 15 7 14 10 -7 2 -14 -2 -37 -7 -50z m1566 45 c23 -14 43 -30
43 -35 0 -4 -30 -12 -67 -16 -65 -7 -67 -6 -90 22 -34 43 -35 42 56 52 8 1 34
-9 58 -23z m918 -20 c23 -18 26 -24 13 -25 -25 0 -98 30 -98 41 0 18 56 8 85
-16z m-1343 -72 l21 -23 -36 0 c-20 0 -64 -6 -99 -14 -35 -8 -109 -17 -165
-21 l-103 -7 0 31 c0 36 0 36 174 66 144 24 157 22 208 -32z m817 -13 l24 -13
-29 -12 c-26 -11 -32 -10 -56 13 -16 14 -28 29 -28 33 0 9 59 -4 89 -21z
m-213 -27 l29 -27 -85 -12 c-122 -17 -126 -17 -145 12 -9 14 -15 27 -13 29 4
5 122 22 159 24 16 1 37 -10 55 -26z m-1749 -30 c-3 -10 -5 -4 -5 12 0 17 2
24 5 18 2 -7 2 -21 0 -30z m2146 -62 l28 -26 -63 -10 c-74 -13 -82 -11 -103
22 -20 30 -16 35 38 43 52 8 65 4 100 -29z m-2147 -18 c-10 -10 -19 5 -10 18
6 11 8 11 12 0 2 -7 1 -15 -2 -18z m1871 -5 c40 -38 30 -45 -88 -58 l-111 -12
-16 24 c-10 12 -17 27 -17 33 0 5 38 15 85 21 123 16 122 16 147 -8z m-1027
-4 c18 -21 -5 -43 -53 -51 -36 -5 -37 -5 -37 24 0 16 3 33 7 36 12 13 71 7 83
-9z m2840 -50 l25 -24 -37 0 c-45 0 -92 34 -68 50 20 13 49 3 80 -26z m151 26
c10 -6 19 -15 19 -20 0 -17 -26 -11 -45 10 -20 22 -7 27 26 10z m-3844 -52
c-2 -13 -4 -5 -4 17 -1 22 1 32 4 23 2 -10 2 -28 0 -40z m2542 8 c11 -13 11
-16 0 -17 -8 0 -32 -2 -54 -4 -33 -3 -43 0 -58 20 -17 24 -17 24 15 33 35 10
73 -3 97 -32z m-249 -21 c13 -14 19 -25 14 -25 -5 0 -49 -6 -97 -14 l-89 -13
-15 24 c-9 13 -14 26 -11 28 5 6 108 22 149 24 15 1 35 -9 49 -24z m1708 -47
c30 -30 5 -37 -29 -8 -23 19 -23 19 -3 20 11 0 25 -5 32 -12z m162 2 c0 -5 -4
-10 -9 -10 -6 0 -13 5 -16 10 -3 6 1 10 9 10 9 0 16 -4 16 -10z"/>
<path d="M2905 5938 c-105 -60 -118 -281 -19 -318 50 -20 105 -3 155 46 25 25
47 50 48 57 15 96 14 108 -19 153 -17 25 -29 51 -26 59 3 10 -1 15 -12 15 -9
0 -33 3 -52 5 -25 4 -46 -1 -75 -17z m100 -76 c6 -4 11 -19 12 -34 1 -23 -3
-28 -23 -28 -24 0 -32 14 -15 24 5 3 7 15 4 26 -5 20 4 26 22 12z"/>
<path d="M1885 5390 c3 -5 8 -10 11 -10 2 0 4 5 4 10 0 6 -5 10 -11 10 -5 0
-7 -4 -4 -10z"/>
<path d="M1985 5390 c3 -5 8 -10 11 -10 2 0 4 5 4 10 0 6 -5 10 -11 10 -5 0
-7 -4 -4 -10z"/>
<path d="M3910 2639 c0 -5 5 -7 10 -4 6 3 10 8 10 11 0 2 -4 4 -10 4 -5 0 -10
-5 -10 -11z"/>
<path d="M3400 2536 c0 -2 7 -6 15 -10 8 -3 15 -1 15 4 0 6 -7 10 -15 10 -8 0
-15 -2 -15 -4z"/>
<path d="M2260 1560 c0 -5 5 -10 10 -10 6 0 10 5 10 10 0 6 -4 10 -10 10 -5 0
-10 -4 -10 -10z"/>
<path d="M2200 1520 c8 -5 20 -10 25 -10 6 0 3 5 -5 10 -8 5 -19 10 -25 10 -5
0 -3 -5 5 -10z"/>
<path d="M1666 1185 c-5 -20 -13 -25 -39 -25 l-32 0 33 -20 c41 -25 61 -14 60
31 -1 38 -14 46 -22 14z"/>
<path d="M1706 1191 c-4 -7 -5 -15 -2 -18 9 -9 19 4 14 18 -4 11 -6 11 -12 0z"/>
<path d="M2320 960 c-13 -8 -12 -10 3 -10 9 0 17 5 17 10 0 12 -1 12 -20 0z"/>
<path d="M3957 5854 c3 -7 9 -14 14 -14 14 0 10 17 -5 23 -10 4 -13 1 -9 -9z"/>
<path d="M3786 5814 c9 -39 13 -44 30 -44 8 0 14 -4 14 -10 0 -5 5 -10 11 -10
5 0 7 5 4 10 -3 6 1 10 9 10 26 0 29 20 5 41 -12 10 -28 19 -35 19 -7 0 -20 3
-29 6 -13 5 -15 2 -9 -22z"/>
<path d="M3916 5811 c-4 -6 2 -21 14 -33 17 -19 20 -31 15 -75 -4 -45 -2 -53
13 -54 9 0 25 -2 36 -4 14 -3 17 1 14 20 -3 16 -1 22 8 18 9 -3 11 2 7 16 -3
12 -1 21 5 21 5 0 10 16 10 35 0 19 -4 35 -9 35 -5 0 -9 7 -9 16 0 12 -5 14
-17 9 -22 -10 -43 -10 -64 -1 -10 4 -20 3 -23 -3z"/>
<path d="M4120 5810 c0 -5 5 -10 11 -10 5 0 7 5 4 10 -3 6 -8 10 -11 10 -2 0
-4 -4 -4 -10z"/>
<path d="M4100 5710 c0 -5 5 -12 10 -15 8 -5 7 -11 -1 -21 -8 -10 -8 -14 0
-14 6 0 11 5 11 11 0 5 5 7 10 4 6 -3 10 -1 10 4 0 6 -5 11 -11 11 -8 0 -8 4
-1 13 8 10 6 13 -9 14 -10 1 -19 -2 -19 -7z"/>
<path d="M3930 5620 c0 -5 7 -10 15 -10 8 0 15 5 15 10 0 6 -7 10 -15 10 -8 0
-15 -4 -15 -10z"/>
<path d="M4068 5613 c7 -3 16 -2 19 1 4 3 -2 6 -13 5 -11 0 -14 -3 -6 -6z"/>
<path d="M4045 5505 c-31 -27 -45 -75 -23 -75 9 -1 8 -4 -3 -10 -25 -15 -20
-128 7 -163 12 -15 25 -27 29 -27 4 0 2 7 -5 15 -16 20 -7 29 17 17 20 -10 43
-6 43 9 0 5 -8 9 -18 9 -29 0 -32 9 -15 47 15 36 16 119 2 138 -4 6 -6 23 -5
38 2 15 3 27 2 27 0 0 -14 -11 -31 -25z"/>
<path d="M4471 5299 c2 -13 0 -29 -4 -36 -4 -6 -3 -14 3 -18 5 -3 11 -4 11 -1
1 3 2 9 3 14 1 4 5 13 9 20 5 7 2 19 -8 29 -16 15 -17 15 -14 -8z"/>
<path d="M3571 5291 c-10 -6 -10 -10 -1 -16 13 -8 24 -1 19 14 -3 6 -10 7 -18
2z"/>
<path d="M4507 5274 c-13 -13 -8 -64 6 -59 13 5 57 -64 57 -89 0 -9 7 -16 15
-16 8 0 15 5 15 10 0 6 -4 10 -9 10 -9 0 -27 72 -24 98 0 6 -7 12 -17 12 -9 0
-21 9 -26 21 -5 11 -13 17 -17 13z"/>
<path d="M3610 5241 c0 -12 28 -22 35 -12 3 5 -2 12 -11 15 -21 8 -24 8 -24
-3z"/>
<path d="M3560 5199 c0 -5 5 -7 10 -4 6 3 10 8 10 11 0 2 -4 4 -10 4 -5 0 -10
-5 -10 -11z"/>
<path d="M3860 5121 c0 -9 34 -21 60 -20 8 0 0 6 -19 14 -39 18 -41 18 -41 6z"/>
<path d="M4484 5119 c-3 -6 -7 -44 -8 -84 -1 -68 0 -72 17 -63 15 7 16 12 6
24 -9 11 -8 14 9 14 12 0 24 -4 27 -10 19 -31 45 35 26 67 -10 17 -10 17 -11
1 0 -28 -28 -10 -35 23 -7 33 -20 45 -31 28z"/>
<path d="M4585 5080 c3 -5 8 -10 11 -10 2 0 4 5 4 10 0 6 -5 10 -11 10 -5 0
-7 -4 -4 -10z"/>
<path d="M3850 5046 c0 -29 4 -36 19 -36 12 0 20 9 24 28 3 15 5 28 4 28 -1 1
-12 5 -24 8 -21 7 -23 4 -23 -28z"/>
<path d="M3835 4928 c-26 -23 -26 -26 -15 -66 13 -50 34 -63 60 -36 30 32 33
78 6 103 l-24 22 -27 -23z"/>
<path d="M3950 4930 c0 -5 5 -10 10 -10 6 0 10 5 10 10 0 6 -4 10 -10 10 -5 0
-10 -4 -10 -10z"/>
<path d="M4006 4764 c-9 -24 -8 -26 14 -14 11 6 18 15 15 21 -9 14 -22 11 -29
-7z"/>
<path d="M3837 4754 c-4 -4 -7 -15 -7 -25 0 -9 -10 -23 -22 -32 -13 -8 -43
-34 -68 -58 -44 -43 -44 -43 -20 -49 47 -12 124 39 135 89 6 30 -7 86 -18 75z"/>
<path d="M3843 4473 c9 -2 17 -11 17 -19 0 -8 5 -12 10 -9 21 13 10 35 -17 34
-17 -1 -21 -3 -10 -6z"/>
<path d="M3622 4420 c-75 -40 -100 -88 -39 -75 56 13 77 24 78 42 0 10 2 26 4
36 4 20 0 20 -43 -3z"/>
<path d="M5104 4341 c3 -5 21 -14 38 -20 l33 -11 -24 20 c-23 20 -57 28 -47
11z"/>
<path d="M5046 4265 c4 -8 13 -15 21 -15 13 0 13 3 3 15 -7 8 -16 15 -21 15
-5 0 -6 -7 -3 -15z"/>
<path d="M5146 4257 c-4 -16 3 -31 27 -56 18 -19 26 -31 20 -27 -7 4 -29 4
-48 0 -27 -5 -33 -9 -25 -19 8 -9 6 -14 -5 -19 -8 -3 -15 -9 -15 -14 0 -4 25
-47 55 -95 30 -47 55 -93 55 -101 0 -8 4 -16 9 -18 4 -1 12 -14 16 -28 7 -22
6 -23 -9 -11 -22 18 -31 8 -16 -19 16 -30 -2 -50 -30 -32 -19 11 -28 3 -13
-12 12 -11 10 -66 -2 -76 -8 -6 -10 -28 -7 -60 3 -30 0 -50 -5 -50 -11 0 -5
-49 8 -65 11 -14 9 -95 -2 -95 -5 0 -9 -7 -9 -15 0 -8 -4 -15 -10 -15 -5 0
-10 -20 -10 -45 0 -25 -5 -47 -13 -52 -19 -11 -47 -76 -47 -108 0 -34 -17 -65
-36 -65 -8 0 -26 7 -39 16 -13 9 -29 13 -36 9 -6 -4 -14 -3 -18 2 -9 15 -71 3
-71 -12 0 -7 -15 -23 -34 -34 -48 -30 -72 -69 -57 -93 16 -25 14 -112 -4 -155
-19 -45 -19 -48 3 -69 30 -31 22 -153 -15 -241 -28 -67 -29 -73 -14 -87 9 -8
18 -25 19 -38 5 -44 -10 -128 -24 -142 -18 -18 -20 -53 -6 -87 11 -26 -1 -115
-18 -133 -12 -12 7 -69 30 -86 19 -14 19 -22 10 -195 -9 -171 -31 -352 -45
-375 -3 -5 -4 -10 -1 -10 2 0 15 17 27 38 12 20 61 96 109 167 97 147 167 283
231 450 13 33 27 65 31 71 4 6 21 51 37 100 16 49 43 127 59 174 49 142 62
187 81 293 11 56 28 141 39 189 10 48 15 91 11 95 -4 4 -4 28 1 52 4 25 6 51
3 58 -3 7 0 19 5 26 6 7 11 22 11 32 2 110 18 255 30 255 9 0 3 151 -9 245 -9
68 -27 139 -47 193 -3 6 -1 12 4 12 12 0 43 -65 43 -90 0 -11 6 -20 14 -20 32
0 -2 150 -50 217 -19 26 -34 52 -34 56 0 4 -11 25 -25 45 -14 20 -25 46 -25
58 0 23 -52 95 -87 119 -19 13 -21 13 -27 -8z m60 -165 c6 -4 17 -18 24 -32
12 -24 11 -24 -19 4 -17 17 -31 31 -31 33 0 5 15 3 26 -5z m84 -125 c0 -28
-25 -5 -39 35 l-11 32 25 -24 c14 -13 25 -32 25 -43z m58 -398 c-3 -20 -5 -19
-9 9 -3 20 -2 29 4 23 5 -5 7 -19 5 -32z m18 -54 c-2 -7 1 -18 7 -24 8 -8 8
-11 0 -11 -17 0 -36 28 -29 46 3 8 11 12 17 9 6 -4 8 -13 5 -20z m-296 -449
c0 -3 -4 -8 -10 -11 -5 -3 -10 -1 -10 4 0 6 5 11 10 11 6 0 10 -2 10 -4z m-15
-756 c3 -5 1 -10 -4 -10 -6 0 -11 5 -11 10 0 6 2 10 4 10 3 0 8 -4 11 -10z
m-10 -52 c-1 -13 -3 -31 -4 -40 0 -10 -8 -18 -17 -18 -12 0 -14 5 -9 18 4 9
10 27 12 40 3 12 9 22 13 22 4 0 6 -10 5 -22z m-25 -126 c-9 -45 -30 -92 -42
-92 -11 0 -10 4 7 48 9 22 17 52 19 68 5 40 5 41 15 26 4 -7 5 -30 1 -50z"/>
<path d="M3425 4164 c9 -9 19 -13 23 -10 3 4 0 11 -8 16 -24 15 -33 11 -15 -6z"/>
<path d="M3277 4123 c-4 -3 -7 -14 -7 -24 0 -12 6 -16 20 -12 22 6 22 6 14 27
-7 17 -16 20 -27 9z"/>
<path d="M3645 3994 c-19 -14 -19 -15 3 -20 12 -4 22 -10 22 -15 0 -5 5 -9 10
-9 7 0 7 6 2 18 -5 9 -7 23 -5 30 6 16 -7 15 -32 -4z"/>
<path d="M3730 3709 c0 -5 5 -7 10 -4 6 3 10 8 10 11 0 2 -4 4 -10 4 -5 0 -10
-5 -10 -11z"/>
<path d="M4067 3713 c-4 -4 -20 -7 -35 -8 -43 0 -37 -27 13 -57 43 -26 45 -27
45 -7 0 11 -4 17 -10 14 -5 -3 -10 0 -10 9 0 8 4 16 9 18 4 2 5 11 2 21 -4 10
-10 15 -14 10z"/>
<path d="M4070 3207 c-58 -26 -57 -25 -37 -44 15 -15 20 -15 44 -2 15 8 30 16
33 20 3 3 15 12 28 21 15 10 19 18 13 23 -6 3 -11 1 -11 -6 0 -8 -4 -8 -12 -1
-9 7 -26 4 -58 -11z"/>
<path d="M4326 3011 c-3 -4 -19 -11 -36 -15 -32 -6 -33 -26 -1 -26 18 0 61 31
61 44 0 9 -18 7 -24 -3z"/>
<path d="M4010 2990 c0 -5 5 -10 11 -10 5 0 7 5 4 10 -3 6 -8 10 -11 10 -2 0
-4 -4 -4 -10z"/>
<path d="M4360 2944 c-30 -8 -62 -21 -70 -29 -12 -13 -11 -17 8 -35 12 -12 22
-27 22 -35 0 -24 31 -35 56 -18 13 8 28 12 34 8 5 -3 10 -2 10 4 0 6 11 13 25
17 26 7 30 30 8 49 -6 6 -13 19 -15 29 -4 26 -14 27 -78 10z"/>
<path d="M4728 2783 c7 -3 16 -2 19 1 4 3 -2 6 -13 5 -11 0 -14 -3 -6 -6z"/>
<path d="M4364 2323 c4 -13 2 -23 -4 -23 -16 0 -12 -40 7 -58 16 -16 16 -16
11 6 -5 17 -3 22 7 18 25 -9 70 10 67 29 -3 13 1 16 12 12 10 -4 16 -1 16 7 0
8 -8 13 -17 12 -10 0 -17 4 -16 9 1 6 -19 10 -44 11 -42 1 -44 0 -39 -23z"/>
<path d="M4090 1260 c0 -5 5 -10 10 -10 6 0 10 5 10 10 0 6 -4 10 -10 10 -5 0
-10 -4 -10 -10z"/>
<path d="M4156 1053 c-6 -14 -5 -15 5 -6 7 7 10 15 7 18 -3 3 -9 -2 -12 -12z"/>
<path d="M4101 1006 c-9 -10 -7 -15 5 -20 23 -9 36 6 19 21 -10 10 -16 9 -24
-1z"/>
<path d="M4065 970 c3 -5 8 -10 11 -10 2 0 4 5 4 10 0 6 -5 10 -11 10 -5 0 -7
-4 -4 -10z"/>
<path d="M4092 951 l1 -28 23 20 c30 25 30 30 3 22 -15 -5 -19 -4 -15 4 4 6 3
11 -3 11 -5 0 -9 -13 -9 -29z"/>
<path d="M3955 837 c-8 -19 -2 -31 13 -26 5 2 6 13 2 24 -7 19 -8 19 -15 2z"/>
<path d="M3930 789 c0 -5 5 -7 10 -4 6 3 10 8 10 11 0 2 -4 4 -10 4 -5 0 -10
-5 -10 -11z"/>
<path d="M0 720 c0 -36 2 -40 25 -40 34 0 41 23 18 54 -27 38 -43 33 -43 -14z"/>
<path d="M883 467 c5 -15 37 -22 37 -9 0 5 -9 12 -21 15 -13 3 -19 1 -16 -6z"/>
<path d="M30 452 c0 -4 23 -21 52 -36 50 -27 54 -28 105 -16 51 13 63 30 20
30 -12 0 -40 7 -62 15 -43 15 -115 20 -115 7z"/>
<path d="M5 430 c3 -5 13 -10 21 -10 8 0 12 5 9 10 -3 6 -13 10 -21 10 -8 0
-12 -4 -9 -10z"/>
<path d="M560 399 c0 -5 5 -7 10 -4 6 3 10 8 10 11 0 2 -4 4 -10 4 -5 0 -10
-5 -10 -11z"/>
<path d="M3895 330 c-3 -5 -2 -10 4 -10 5 0 13 5 16 10 3 6 2 10 -4 10 -5 0
-13 -4 -16 -10z"/>
<path d="M1200 250 c0 -5 7 -10 15 -10 8 0 15 5 15 10 0 6 -7 10 -15 10 -8 0
-15 -4 -15 -10z"/>
<path d="M84 221 c7 -11 66 -20 66 -10 0 4 -7 10 -16 13 -24 9 -56 7 -50 -3z"/>
<path d="M0 210 c0 -5 7 -10 16 -10 8 0 12 5 9 10 -3 6 -10 10 -16 10 -5 0 -9
-4 -9 -10z"/>
<path d="M66 181 c-3 -5 8 -14 26 -20 49 -17 66 -12 28 9 -40 22 -47 23 -54
11z"/>
<path d="M190 143 c8 -2 36 -13 62 -24 52 -21 58 -22 58 -11 0 14 -69 42 -103
41 -18 0 -25 -3 -17 -6z"/>
<path d="M568 143 c7 -3 16 -2 19 1 4 3 -2 6 -13 5 -11 0 -14 -3 -6 -6z"/>
<path d="M1226 130 c16 -16 94 -26 94 -11 0 6 -10 11 -22 12 -13 0 -36 3 -53
5 -22 4 -27 2 -19 -6z"/>
<path d="M5 90 c3 -5 16 -10 28 -9 21 0 21 1 2 9 -28 12 -37 12 -30 0z"/>
<path d="M512 89 c3 -8 20 -17 39 -20 49 -9 91 -28 85 -38 -7 -11 17 -21 50
-21 29 0 32 20 4 27 -11 3 -20 9 -20 14 0 14 -40 30 -83 34 -23 2 -50 7 -61
11 -14 5 -17 3 -14 -7z"/>
<path d="M660 95 c0 -7 91 -45 109 -45 9 -1 33 -7 55 -15 38 -13 66 -11 66 6
0 5 -10 10 -22 10 -18 1 -17 3 7 9 l30 7 -35 10 c-22 6 -41 6 -50 0 -11 -6
-37 -4 -79 7 -66 17 -81 19 -81 11z"/>
<path d="M1688 83 c6 -2 18 -2 25 0 6 3 1 5 -13 5 -14 0 -19 -2 -12 -5z"/>
<path d="M1530 62 c0 -6 8 -13 18 -15 9 -3 -11 -5 -45 -6 -34 0 -65 -5 -68
-11 -3 -6 3 -10 14 -10 11 0 23 -5 27 -11 8 -13 195 -6 248 9 34 9 44 27 21
36 -33 12 -215 19 -215 8z"/>
<path d="M2388 43 c-20 -3 -28 -10 -28 -24 0 -28 42 -25 77 6 l28 24 -25 -1
c-14 0 -37 -3 -52 -5z"/>
<path d="M760 15 c13 -16 50 -21 50 -6 0 5 -10 11 -22 15 -36 9 -41 7 -28 -9z"/>
<path d="M9 9 c-9 -6 1 -9 30 -9 24 0 41 3 38 6 -10 11 -53 13 -68 3z"/>
<path d="M1365 10 c3 -5 18 -10 32 -10 32 0 28 5 -10 14 -19 4 -26 3 -22 -4z"/>
<path d="M548 3 c7 -3 16 -2 19 1 4 3 -2 6 -13 5 -11 0 -14 -3 -6 -6z"/>
</g>
</svg>
